<?xml version="1.0" encoding="utf-8"?>
<!-- Generator: Adobe Illustrator 27.4.1, SVG Export Plug-In . SVG Version: 6.00 Build 0)  -->
<svg version="1.1" id="Layer_1" xmlns="http://www.w3.org/2000/svg" xmlns:xlink="http://www.w3.org/1999/xlink" x="0px" y="0px"
	 viewBox="0 0 164.78 34.03" style="enable-background:new 0 0 164.78 34.03;" xml:space="preserve">
<style type="text/css">
	.st0{fill:#FFFFFF;}
</style>
<g>
	<path class="st0" d="M0.72,22.63c-0.35,0-0.53-0.18-0.53-0.53L0,10.58c-0.01-0.41,0.1-0.71,0.33-0.9s0.53-0.3,0.89-0.32
		c2.79-0.22,4.91,0.1,6.36,0.96s2.17,2.18,2.17,3.95c0,0.71-0.15,1.36-0.45,1.93c-0.3,0.57-0.73,1.06-1.3,1.46s-1.27,0.69-2.1,0.89
		c-0.84,0.19-1.79,0.26-2.87,0.2L2.96,22.1c0,0.35-0.18,0.53-0.53,0.53H0.72z M2.96,16.31c0.56,0.05,1.08,0.04,1.55-0.03
		c0.47-0.06,0.88-0.18,1.22-0.34c0.34-0.16,0.6-0.38,0.8-0.66c0.19-0.27,0.29-0.6,0.29-0.99s-0.09-0.72-0.28-1
		c-0.19-0.28-0.45-0.51-0.78-0.68c-0.33-0.18-0.74-0.3-1.21-0.36C4.08,12.19,3.56,12.19,3,12.26L2.96,16.31z"/>
	<path class="st0" d="M11.42,22.63c-0.35,0-0.53-0.18-0.53-0.53l-0.21-8.72c-0.02-0.35,0.15-0.53,0.51-0.53h2.14
		c0.18,0,0.3,0.04,0.37,0.11c0.07,0.07,0.1,0.19,0.1,0.37v0.53c0.33-0.48,0.8-0.82,1.41-1.01s1.27-0.27,1.97-0.22
		c0.35,0.02,0.53,0.2,0.53,0.53v1.81c0,0.18-0.05,0.31-0.15,0.39c-0.1,0.09-0.23,0.12-0.38,0.1c-0.37-0.07-0.76-0.08-1.16-0.04
		s-0.76,0.13-1.1,0.28c-0.33,0.15-0.61,0.35-0.82,0.6c-0.22,0.25-0.33,0.55-0.34,0.9l-0.1,4.91c0,0.35-0.18,0.53-0.53,0.53H11.42z"
		/>
	<path class="st0" d="M21.25,19c0.09,0.5,0.36,0.9,0.81,1.18c0.44,0.29,0.98,0.42,1.61,0.41c0.48-0.01,0.91-0.07,1.28-0.17
		c0.37-0.1,0.72-0.25,1.05-0.45c0.36-0.2,0.62-0.17,0.79,0.07l0.61,0.86c0.07,0.11,0.1,0.22,0.1,0.34s-0.08,0.25-0.22,0.38
		c-0.51,0.42-1.08,0.73-1.69,0.93c-0.61,0.2-1.32,0.3-2.13,0.3c-0.76,0-1.46-0.12-2.1-0.35c-0.64-0.23-1.19-0.57-1.66-1.01
		c-0.47-0.44-0.83-0.97-1.09-1.6c-0.26-0.62-0.39-1.33-0.39-2.11s0.13-1.49,0.38-2.12c0.25-0.63,0.6-1.17,1.04-1.62
		c0.44-0.45,0.97-0.8,1.58-1.04c0.61-0.25,1.26-0.37,1.96-0.37c0.75,0,1.42,0.11,2.03,0.34c0.6,0.23,1.11,0.55,1.53,0.96
		s0.75,0.9,0.97,1.46s0.35,1.17,0.38,1.84c0.01,0.43-0.1,0.81-0.34,1.12c-0.24,0.32-0.61,0.48-1.11,0.49L21.25,19z M25.53,16.65
		c-0.07-0.48-0.32-0.87-0.74-1.18c-0.42-0.3-0.92-0.44-1.51-0.42c-0.63,0.02-1.13,0.21-1.49,0.54c-0.36,0.34-0.57,0.75-0.63,1.23
		L25.53,16.65z"/>
	<path class="st0" d="M30.2,22.63c-0.35,0-0.53-0.18-0.53-0.53l-0.21-8.7c-0.02-0.35,0.15-0.53,0.51-0.53h2.14
		c0.27,0,0.43,0.12,0.49,0.35v0.7c0.06-0.18,0.16-0.34,0.3-0.5c0.14-0.16,0.31-0.29,0.5-0.41c0.19-0.12,0.4-0.21,0.62-0.28
		c0.22-0.07,0.44-0.11,0.67-0.11c1.04,0,1.82,0.47,2.33,1.42c0.27-0.46,0.61-0.81,1.02-1.05c0.41-0.25,0.86-0.37,1.37-0.37
		c0.48,0,0.9,0.07,1.27,0.22c0.37,0.15,0.69,0.35,0.96,0.6c0.27,0.26,0.48,0.56,0.65,0.92c0.16,0.36,0.29,0.74,0.37,1.15
		c0.08,0.47,0.14,0.98,0.18,1.53s0.05,1.12,0.05,1.7c0,0.58-0.02,1.15-0.05,1.73s-0.08,1.1-0.12,1.6c-0.02,0.17-0.07,0.31-0.15,0.39
		c-0.08,0.09-0.2,0.13-0.38,0.13h-1.84c-0.36,0-0.53-0.18-0.49-0.53c0.09-1.01,0.16-1.98,0.19-2.92c0.04-0.94,0.01-1.76-0.09-2.45
		c-0.06-0.43-0.19-0.77-0.39-1c-0.2-0.23-0.46-0.35-0.76-0.35c-0.32,0-0.58,0.12-0.78,0.37s-0.3,0.56-0.27,0.93
		c0.06,0.81,0.08,1.66,0.05,2.57c-0.02,0.91-0.08,1.86-0.16,2.85c-0.02,0.17-0.07,0.31-0.15,0.39s-0.2,0.13-0.38,0.13h-1.84
		c-0.36,0-0.53-0.18-0.49-0.53c0.09-1.01,0.15-1.96,0.18-2.86c0.02-0.9,0.01-1.74-0.05-2.51c-0.04-0.44-0.15-0.79-0.35-1.03
		c-0.2-0.24-0.48-0.35-0.84-0.32c-0.37,0.02-0.66,0.15-0.85,0.38s-0.3,0.51-0.31,0.83l-0.11,5.52c0,0.35-0.18,0.53-0.53,0.53H30.2z"
		/>
	<path class="st0" d="M46.14,12.17c-0.5,0-0.93-0.17-1.27-0.52c-0.35-0.34-0.52-0.77-0.52-1.27c0-0.5,0.17-0.93,0.52-1.27
		c0.34-0.34,0.77-0.52,1.27-0.52c0.5,0,0.93,0.17,1.27,0.52s0.52,0.77,0.52,1.27c0,0.5-0.17,0.93-0.52,1.27
		C47.06,12,46.64,12.17,46.14,12.17z M45.3,22.63c-0.35,0-0.53-0.18-0.53-0.53l-0.21-8.68c0-0.35,0.17-0.53,0.51-0.53h2.14
		c0.35,0,0.52,0.18,0.51,0.53l-0.18,8.68c0,0.35-0.18,0.53-0.53,0.53H45.3z"/>
	<path class="st0" d="M52.31,19c0.09,0.5,0.36,0.9,0.81,1.18c0.44,0.29,0.98,0.42,1.61,0.41c0.48-0.01,0.91-0.07,1.28-0.17
		c0.37-0.1,0.72-0.25,1.05-0.45c0.36-0.2,0.62-0.17,0.79,0.07l0.61,0.86c0.07,0.11,0.1,0.22,0.1,0.34s-0.08,0.25-0.22,0.38
		c-0.51,0.42-1.08,0.73-1.69,0.93c-0.61,0.2-1.32,0.3-2.13,0.3c-0.76,0-1.46-0.12-2.1-0.35c-0.64-0.23-1.19-0.57-1.66-1.01
		c-0.47-0.44-0.83-0.97-1.09-1.6c-0.26-0.62-0.39-1.33-0.39-2.11s0.13-1.49,0.38-2.12c0.25-0.63,0.6-1.17,1.04-1.62
		c0.44-0.45,0.97-0.8,1.58-1.04c0.61-0.25,1.26-0.37,1.96-0.37c0.75,0,1.42,0.11,2.03,0.34c0.6,0.23,1.11,0.55,1.53,0.96
		s0.75,0.9,0.97,1.46s0.35,1.17,0.38,1.84c0.01,0.43-0.1,0.81-0.34,1.12c-0.24,0.32-0.61,0.48-1.11,0.49L52.31,19z M56.59,16.65
		c-0.07-0.48-0.32-0.87-0.74-1.18c-0.42-0.3-0.92-0.44-1.51-0.42c-0.63,0.02-1.13,0.21-1.49,0.54c-0.36,0.34-0.57,0.75-0.63,1.23
		L56.59,16.65z"/>
	<path class="st0" d="M61.17,22.63c-0.35,0-0.53-0.18-0.53-0.53l-0.21-8.72c-0.02-0.35,0.15-0.53,0.51-0.53h2.14
		c0.18,0,0.3,0.04,0.37,0.11c0.07,0.07,0.1,0.19,0.1,0.37v0.53c0.33-0.48,0.8-0.82,1.41-1.01s1.27-0.27,1.97-0.22
		c0.35,0.02,0.53,0.2,0.53,0.53v1.81c0,0.18-0.05,0.31-0.15,0.39c-0.1,0.09-0.23,0.12-0.38,0.1c-0.37-0.07-0.76-0.08-1.16-0.04
		s-0.76,0.13-1.1,0.28c-0.33,0.15-0.61,0.35-0.82,0.6c-0.22,0.25-0.33,0.55-0.34,0.9l-0.1,4.91c0,0.35-0.18,0.53-0.53,0.53H61.17z"
		/>
</g>
<g>
	<path class="st0" d="M103.09,20.1c0.78,0.01,1.58-0.02,2.39-0.1s1.58-0.18,2.31-0.32c0.36-0.07,0.57,0.05,0.61,0.37l0.26,1.46
		c0.04,0.19,0.02,0.33-0.04,0.41c-0.06,0.09-0.17,0.15-0.32,0.18c-1.01,0.25-2.11,0.43-3.31,0.54c-1.2,0.12-2.39,0.16-3.56,0.14
		c-0.81-0.02-1.22-0.43-1.23-1.21L100,10.02c0-0.35,0.17-0.53,0.51-0.53h2.21c0.35,0,0.52,0.18,0.51,0.53L103.09,20.1z"/>
	<path class="st0" d="M112.5,19c0.09,0.5,0.36,0.9,0.81,1.18c0.44,0.29,0.98,0.42,1.61,0.41c0.48-0.01,0.91-0.07,1.28-0.17
		s0.72-0.25,1.05-0.45c0.36-0.2,0.63-0.17,0.79,0.07l0.61,0.86c0.07,0.11,0.1,0.22,0.1,0.34c-0.01,0.12-0.08,0.25-0.22,0.38
		c-0.51,0.42-1.08,0.73-1.69,0.93c-0.61,0.2-1.32,0.3-2.13,0.3c-0.76,0-1.46-0.12-2.1-0.35c-0.64-0.23-1.19-0.57-1.66-1.01
		s-0.83-0.97-1.09-1.6c-0.26-0.62-0.39-1.33-0.39-2.11s0.13-1.49,0.38-2.12c0.25-0.63,0.6-1.17,1.04-1.62
		c0.44-0.45,0.97-0.8,1.58-1.04c0.61-0.25,1.26-0.37,1.96-0.37c0.75,0,1.42,0.11,2.03,0.34c0.6,0.23,1.11,0.55,1.53,0.96
		c0.42,0.42,0.75,0.9,0.97,1.46c0.23,0.56,0.35,1.17,0.38,1.84c0.01,0.43-0.1,0.81-0.34,1.12c-0.24,0.32-0.61,0.48-1.11,0.49
		L112.5,19z M116.78,16.65c-0.07-0.48-0.32-0.87-0.74-1.18c-0.42-0.3-0.92-0.44-1.51-0.42c-0.63,0.02-1.13,0.21-1.49,0.54
		c-0.36,0.34-0.57,0.75-0.63,1.23L116.78,16.65z"/>
	<path class="st0" d="M128.51,22.63c-0.32,0-0.47-0.14-0.47-0.42V21.4c-0.25,0.42-0.62,0.77-1.12,1.04c-0.5,0.27-1.07,0.41-1.7,0.41
		c-0.66,0-1.27-0.12-1.84-0.35c-0.57-0.23-1.07-0.57-1.49-1.01s-0.75-0.97-1-1.6c-0.25-0.62-0.37-1.33-0.37-2.11
		s0.12-1.49,0.37-2.12c0.25-0.63,0.58-1.17,1-1.6c0.42-0.44,0.92-0.78,1.49-1.02c0.57-0.24,1.19-0.35,1.84-0.34
		c0.29,0,0.58,0.04,0.85,0.11c0.27,0.08,0.53,0.18,0.75,0.3s0.43,0.27,0.6,0.45c0.18,0.18,0.3,0.36,0.39,0.56V13.4
		c-0.02-0.35,0.15-0.53,0.51-0.53h2.14c0.34,0,0.51,0.18,0.51,0.53l-0.21,8.7c0,0.35-0.17,0.53-0.53,0.53H128.51z M124.06,19.82
		c0.41,0.45,0.96,0.67,1.67,0.67c0.71,0,1.27-0.23,1.67-0.67c0.4-0.45,0.6-1.04,0.6-1.78c0-0.74-0.2-1.33-0.59-1.78
		c-0.39-0.45-0.96-0.68-1.69-0.68c-0.7,0-1.26,0.23-1.67,0.68c-0.41,0.45-0.61,1.04-0.61,1.78
		C123.45,18.77,123.65,19.36,124.06,19.82z"/>
	<path class="st0" d="M133.99,22.91c0.19-0.28,0.43-0.33,0.74-0.14c0.36,0.22,0.74,0.4,1.13,0.54c0.39,0.13,0.82,0.2,1.29,0.2
		c0.43,0,0.82-0.07,1.15-0.21s0.62-0.34,0.85-0.6c0.23-0.26,0.41-0.56,0.53-0.9c0.12-0.34,0.18-0.73,0.18-1.15v-0.3
		c-0.23,0.41-0.6,0.75-1.11,1.04c-0.51,0.28-1.13,0.42-1.85,0.42c-0.65,0-1.26-0.1-1.81-0.31c-0.56-0.2-1.04-0.5-1.44-0.89
		s-0.72-0.87-0.94-1.43c-0.22-0.56-0.33-1.2-0.33-1.91c0-0.71,0.11-1.35,0.33-1.91c0.22-0.56,0.53-1.04,0.94-1.43
		c0.4-0.39,0.88-0.69,1.44-0.9c0.55-0.21,1.16-0.32,1.81-0.32c0.7,0,1.29,0.14,1.77,0.42s0.81,0.6,0.98,0.96l-0.02-0.68
		c-0.02-0.35,0.15-0.53,0.51-0.53h2.14c0.34,0,0.51,0.18,0.51,0.53l-0.16,6.98c-0.02,0.84-0.16,1.61-0.41,2.3
		c-0.25,0.69-0.61,1.28-1.07,1.76s-1.02,0.86-1.68,1.12c-0.66,0.26-1.41,0.38-2.24,0.36c-0.7-0.02-1.37-0.16-2-0.42
		c-0.63-0.26-1.19-0.61-1.68-1.05c-0.11-0.09-0.18-0.2-0.21-0.32c-0.04-0.12-0.01-0.25,0.09-0.39L133.99,22.91z M135.48,18.31
		c0.13,0.25,0.29,0.46,0.5,0.63c0.2,0.18,0.44,0.31,0.72,0.41c0.27,0.1,0.57,0.15,0.89,0.15c0.32,0,0.61-0.05,0.88-0.15
		c0.28-0.1,0.52-0.24,0.73-0.41c0.21-0.17,0.37-0.39,0.49-0.64c0.12-0.25,0.18-0.53,0.18-0.83c0-0.62-0.21-1.11-0.64-1.48
		c-0.43-0.37-0.97-0.55-1.64-0.55c-0.32,0-0.61,0.05-0.89,0.15c-0.28,0.1-0.51,0.24-0.72,0.41c-0.21,0.18-0.37,0.39-0.49,0.64
		s-0.18,0.53-0.18,0.83C135.3,17.77,135.36,18.06,135.48,18.31z"/>
	<path class="st0" d="M151.07,22.63c-0.35,0-0.53-0.18-0.53-0.53l-0.02-0.54c-0.2,0.37-0.51,0.69-0.95,0.94
		c-0.43,0.25-0.99,0.38-1.67,0.38c-0.44,0-0.85-0.07-1.22-0.22c-0.37-0.15-0.7-0.35-0.98-0.61c-0.29-0.26-0.53-0.56-0.72-0.92
		c-0.19-0.36-0.33-0.74-0.41-1.15c-0.09-0.48-0.16-0.99-0.21-1.53s-0.07-1.1-0.07-1.66s0.01-1.13,0.04-1.7
		c0.02-0.57,0.06-1.13,0.11-1.67c0.02-0.18,0.07-0.31,0.15-0.4c0.08-0.09,0.2-0.13,0.38-0.13h2.02c0.36,0,0.53,0.18,0.49,0.53
		c-0.09,1.01-0.16,1.96-0.2,2.86c-0.04,0.9-0.01,1.74,0.08,2.51c0.06,0.44,0.22,0.78,0.5,1.01c0.28,0.23,0.64,0.34,1.1,0.34
		c0.44,0,0.81-0.15,1.1-0.45c0.29-0.3,0.42-0.65,0.41-1.06l-0.12-5.21c0-0.35,0.17-0.53,0.51-0.53h2.14c0.35,0,0.52,0.18,0.51,0.53
		l-0.18,8.68c0,0.35-0.18,0.53-0.53,0.53H151.07z"/>
	<path class="st0" d="M157.92,19c0.09,0.5,0.36,0.9,0.81,1.18c0.44,0.29,0.98,0.42,1.61,0.41c0.48-0.01,0.91-0.07,1.28-0.17
		s0.72-0.25,1.05-0.45c0.36-0.2,0.63-0.17,0.79,0.07l0.61,0.86c0.07,0.11,0.1,0.22,0.1,0.34c-0.01,0.12-0.08,0.25-0.22,0.38
		c-0.51,0.42-1.08,0.73-1.69,0.93c-0.61,0.2-1.32,0.3-2.13,0.3c-0.76,0-1.46-0.12-2.1-0.35c-0.64-0.23-1.19-0.57-1.66-1.01
		s-0.83-0.97-1.09-1.6c-0.26-0.62-0.39-1.33-0.39-2.11s0.13-1.49,0.38-2.12c0.25-0.63,0.6-1.17,1.04-1.62
		c0.44-0.45,0.97-0.8,1.58-1.04c0.61-0.25,1.26-0.37,1.96-0.37c0.75,0,1.42,0.11,2.03,0.34c0.6,0.23,1.11,0.55,1.53,0.96
		c0.42,0.42,0.75,0.9,0.97,1.46c0.23,0.56,0.35,1.17,0.38,1.84c0.01,0.43-0.1,0.81-0.34,1.12c-0.24,0.32-0.61,0.48-1.11,0.49
		L157.92,19z M162.2,16.65c-0.07-0.48-0.32-0.87-0.74-1.18c-0.42-0.3-0.92-0.44-1.51-0.42c-0.63,0.02-1.13,0.21-1.49,0.54
		c-0.36,0.34-0.57,0.75-0.63,1.23L162.2,16.65z"/>
</g>
<path class="st0" d="M87.95,31.86c-0.65,0.47-1.21,0.97-1.85,1.32c-0.63,0.34-1.32,0.58-2.01,0.78c-0.67,0.2-1.32-0.03-1.94-0.27
	c-1.08-0.4-2.03-1.02-2.84-1.92c-0.46,0.59-0.97,0.35-1.47,0.08c-3.87-2.11-6.51-5.19-7.5-9.55c-0.33-1.45-0.44-2.91-0.31-4.4
	c0.05-0.54-0.05-1.11-0.16-1.66c-0.35-1.68-0.8-3.33-1.08-5.02c-0.32-1.94,0.15-3.8,0.98-5.55c1.46-3.05,3.9-4.89,7.2-5.53
	c1.92-0.38,3.78,0.04,5.54,0.79c0.78,0.33,1.42,0.32,2.2,0.01c1-0.4,2.08-0.72,3.15-0.84c2.74-0.3,5.17,0.55,7.22,2.39
	c2.47,2.21,3.53,5.07,3.38,8.3c-0.08,1.72-0.64,3.42-1.04,5.11c-0.18,0.77-0.31,1.51-0.26,2.31c0.32,4.83-1.46,8.79-5.11,11.9
	c-0.85,0.72-1.87,1.23-2.82,1.82C88.77,32.2,88.33,32.26,87.95,31.86z M86.44,14.95c0.81,1.18,1.58,2.29,2.37,3.43
	c0.39-0.86,0.71-1.6,1.07-2.33c0.42-0.86,0.72-1.75,0.79-2.7c0.11-1.45-0.19-2.77-1.28-3.81c-0.53-0.51-1.16-0.78-1.92-0.76
	c-1.22,0.03-2.36,0.38-3.43,0.94c-0.3,0.15-0.52,0.14-0.82,0.02c-0.74-0.3-1.48-0.61-2.25-0.79c-2.37-0.57-3.67,0.57-4.28,2.61
	c-0.3,0.99-0.27,2,0.07,2.97c0.34,0.97,0.79,1.91,1.19,2.86c0.12,0.29,0.26,0.58,0.43,0.97c0.82-1.16,1.58-2.23,2.37-3.34
	c-1.69-0.38-2.36-1.17-2.17-2.46c1.01,0.16,2.37,0.9,3.18,1.72c0.47,0.47,0.53,0.63,0.19,1.2c-0.61,1.01-1.28,1.98-1.95,2.95
	c-0.51,0.74-1.09,1.44-1.32,2.34c-0.34,1.36,0.66,2.73,2.05,2.66c0.75-0.04,1.51-0.25,2.22-0.5c0.47-0.17,0.85-0.21,1.3,0.01
	c0.75,0.37,1.56,0.54,2.4,0.52c0.91-0.02,1.6-0.58,1.84-1.45c0.22-0.82-0.01-1.56-0.43-2.24c-0.5-0.8-1.07-1.56-1.58-2.35
	c-0.45-0.69-0.88-1.4-1.29-2.11c-0.2-0.35-0.13-0.67,0.17-0.95c0.83-0.79,1.81-1.32,2.88-1.69c0.12-0.04,0.25-0.04,0.38-0.05
	C88.8,13.83,87.97,14.78,86.44,14.95z M80.95,24.92c0.19,0.69,0.96,1.31,1.72,1.34c0.63,0.03,1.27,0.03,1.9,0
	c0.78-0.03,1.62-0.74,1.68-1.34c-0.85-0.24-1.7-0.49-2.55-0.72c-0.08-0.02-0.18-0.01-0.26,0.01C82.61,24.44,81.78,24.68,80.95,24.92
	z M92.26,12.98c1.14-0.66,1.67-2.58,0.95-3.79c-0.39-0.65-0.86-0.83-1.57-0.58c-0.19,0.07-0.38,0.17-0.57,0.23
	c-0.26,0.08-0.28,0.21-0.13,0.42c0.2,0.31,0.43,0.62,0.54,0.96C91.77,11.15,92.01,12.08,92.26,12.98z M75.07,13.05
	c0.06-1.4,0.29-2.71,1.19-3.81c0.05-0.06,0.01-0.26-0.06-0.31c-0.99-0.8-2.06-0.45-2.41,0.77c-0.05,0.17-0.08,0.34-0.11,0.52
	C73.51,11.24,74.16,12.6,75.07,13.05z"/>
<path class="st0" d="M82.75,21.34c-0.18,0.02-0.33,0.04-0.47,0.06c-0.39,0.05-0.69-0.16-0.78-0.55c-0.1-0.39,0.12-0.58,0.45-0.68
	c1.14-0.35,2.27-0.31,3.4,0.05c0.32,0.1,0.45,0.32,0.34,0.65c-0.13,0.4-0.45,0.62-0.78,0.54c-0.15-0.04-0.3-0.05-0.46-0.07
	c-0.06,0.68-0.4,1.05-0.88,1.02C83.13,22.35,82.78,21.93,82.75,21.34z"/>
</svg>
